<?xml version="1.0" standalone="no"?>
<!DOCTYPE svg PUBLIC "-//W3C//DTD SVG 20010904//EN"
 "http://www.w3.org/TR/2001/REC-SVG-20010904/DTD/svg10.dtd">
 

<svg version="1.0" xmlns="http://www.w3.org/2000/svg"
 width="363.000000pt" height="80.000000pt" viewBox="0 0 363.000000 80.000000"
 preserveAspectRatio="xMidYMid meet">
<defs>
    <style>
      .cls-1 {
        fill: url(#linear-gradient);
      }

      .cls-1, .cls-2, .cls-3, .cls-4 {
        stroke-width: 0px;
      }

      .cls-2 {
        fill: #6a0cf8;
      }

      .cls-3 {
        fill: #fff;
      }

      .cls-4 {
        fill: #309;
      }
    </style>
    <linearGradient id="linear-gradient" x1="0" y1="39.99" x2="153.12" y2="39.99" gradientUnits="userSpaceOnUse">
      <stop offset=".13" stop-color="#6a0cf8"/>
      <stop offset=".56" stop-color="#fd16b8"/>
      <stop offset=".97" stop-color="#fdba7f"/>
    </linearGradient>
  </defs>
<g id="Layer_1-2" data-name="Layer 1">
<g>
<g transform="translate(0.000000,80.000000) scale(0.100000,-0.100000)"
fill="#000000" stroke="none">
<path d="M279 766 c-20 -8 -51 -21 -69 -31 -36 -19 -120 -93 -120 -106 0 -5
139 -9 310 -9 171 0 310 4 310 9 0 18 -94 94 -148 119 -47 22 -73 27 -152 29
-62 2 -108 -2 -131 -11z"/>
<path d="M36 532 c-2 -4 -9 -35 -16 -70 -12 -67 -1 -163 25 -212 l13 -25 12
30 c7 17 29 80 50 140 21 61 42 118 45 128 6 15 0 17 -58 17 -36 0 -68 -3 -71
-8z"/>
<path d="M192 338 l-72 -203 41 -37 c61 -56 136 -82 239 -82 121 0 185 27 271
113 86 87 113 150 112 271 0 47 -5 97 -11 113 l-12 27 -248 0 -249 0 -71 -202z
m412 153 c3 -5 1 -23 -5 -40 l-11 -31 -102 0 c-66 0 -108 -4 -119 -12 -16 -13
-57 -116 -57 -145 0 -19 131 -14 138 5 2 8 -10 12 -42 12 -50 0 -51 2 -35 49
l11 31 94 0 c52 0 94 -3 94 -6 0 -13 -54 -160 -63 -172 -7 -9 -45 -12 -150
-10 -121 3 -141 5 -151 21 -15 23 69 272 98 293 23 16 291 21 300 5z m149 2
c3 -5 -21 -79 -51 -165 l-56 -158 -43 0 c-24 0 -43 4 -43 9 0 7 54 165 105
309 5 13 81 17 88 5z"/>
</g>

<!-- <g transform="translate(0.000000,80.000000) scale(0.100000,-0.100000)"
fill="#000000" stroke="none">
<path d="M279 766 c-20 -8 -51 -21 -69 -31 -36 -19 -120 -93 -120 -106 0 -5
139 -9 310 -9 171 0 310 4 310 9 0 18 -94 94 -148 119 -47 22 -73 27 -152 29
-62 2 -108 -2 -131 -11z"/>
<path d="M36 532 c-2 -4 -9 -35 -16 -70 -12 -67 -1 -163 25 -212 l13 -25 12
30 c7 17 29 80 50 140 21 61 42 118 45 128 6 15 0 17 -58 17 -36 0 -68 -3 -71
-8z"/>
<path d="M192 338 l-72 -203 41 -37 c61 -56 136 -82 239 -82 121 0 185 27 271
113 86 87 113 150 112 271 0 47 -5 97 -11 113 l-12 27 -248 0 -249 0 -71 -202z
m412 153 c3 -5 1 -23 -5 -40 l-11 -31 -102 0 c-66 0 -108 -4 -119 -12 -16 -13
-57 -116 -57 -145 0 -19 131 -14 138 5 2 8 -10 12 -42 12 -50 0 -51 2 -35 49
l11 31 94 0 c52 0 94 -3 94 -6 0 -13 -54 -160 -63 -172 -7 -9 -45 -12 -150
-10 -121 3 -141 5 -151 21 -15 23 69 272 98 293 23 16 291 21 300 5z m149 2
c3 -5 -21 -79 -51 -165 l-56 -158 -43 0 c-24 0 -43 4 -43 9 0 7 54 165 105
309 5 13 81 17 88 5z"/>
</g> -->
</svg>
